<?xml version="1.0" standalone="no"?>
<!DOCTYPE svg PUBLIC "-//W3C//DTD SVG 20010904//EN"
 "http://www.w3.org/TR/2001/REC-SVG-20010904/DTD/svg10.dtd">
<svg version="1.0" xmlns="http://www.w3.org/2000/svg"
 width="421.000000pt" height="421.000000pt" viewBox="0 0 421.000000 421.000000"
 preserveAspectRatio="xMidYMid meet">
<metadata>
Created by potrace 1.14, written by Peter Selinger 2001-2017
</metadata>
<g transform="translate(0.000000,421.000000) scale(0.100000,-0.100000)"
fill="#000000" stroke="none">
<path d="M1742 3615 c-16 -14 -50 -29 -75 -34 -25 -4 -57 -18 -72 -30 -15 -11
-36 -21 -47 -21 -11 0 -40 -20 -64 -44 -41 -40 -51 -57 -53 -93 -1 -7 -14 -25
-29 -40 -32 -32 -42 -53 -49 -103 -2 -20 -15 -44 -28 -56 -38 -35 -58 -81 -44
-105 7 -13 8 -39 4 -68 -8 -52 -9 -116 -2 -178 2 -23 -1 -64 -8 -91 -20 -75
-27 -150 -30 -334 -2 -92 -6 -172 -10 -178 -4 -7 -16 -2 -32 14 -21 21 -28 23
-54 14 -60 -21 -76 -135 -49 -336 22 -165 57 -232 116 -225 30 4 31 2 43 -50
6 -30 14 -66 16 -80 14 -73 60 -212 97 -287 61 -126 108 -181 265 -310 7 -6
16 -10 22 -10 5 0 11 -3 13 -7 4 -11 65 -53 76 -53 5 0 15 -7 22 -15 7 -8 16
-12 21 -9 5 3 9 0 9 -5 0 -6 3 -10 8 -9 4 1 21 -4 37 -11 17 -7 35 -14 40 -15
6 -2 17 -6 25 -9 34 -15 190 -33 261 -31 100 3 185 25 298 79 162 78 285 174
356 280 41 60 138 275 149 330 11 54 26 77 47 72 34 -9 66 9 94 52 15 21 28
45 29 53 2 7 6 20 9 28 7 16 44 152 53 192 3 13 8 53 11 89 9 116 -34 168
-103 123 -27 -18 -27 -21 -10 62 2 11 7 47 10 80 15 148 18 171 22 204 3 19 7
89 10 156 5 140 -7 194 -61 273 -30 43 -35 59 -35 108 0 40 -8 74 -24 108 -25
55 -99 128 -162 160 -21 11 -41 23 -42 28 -2 4 -8 5 -13 1 -5 -3 -9 0 -9 5 0
6 -6 11 -13 11 -7 0 -23 9 -35 20 -12 11 -26 20 -32 20 -5 0 -10 4 -10 9 0 5
-17 17 -37 26 -21 10 -40 21 -43 25 -9 12 -153 77 -199 90 -24 6 -67 22 -96
35 -59 27 -90 35 -160 40 -27 1 -79 12 -114 24 -58 20 -67 21 -112 8 -28 -9
-52 -11 -55 -6 -3 5 -14 9 -25 9 -10 0 -19 5 -19 11 0 5 -4 7 -10 4 -5 -3 -10
-2 -10 3 0 5 -6 9 -12 9 -7 0 -20 4 -29 7 -10 5 -28 -3 -47 -19z"/>
</g>
</svg>
